<svg width="59" height="59" viewBox="0 0 59 59" fill="none" xmlns="http://www.w3.org/2000/svg">
<rect width="59" height="59" rx="10" fill="#EB5757"/>
<path d="M22.0838 31.4219L27.0731 26.6053L14.7058 14.6662C11.9555 17.3212 11.9555 21.6356 14.7058 24.2907L22.0838 31.4219V31.4219ZM34.0457 28.3328C36.7342 29.5497 40.5334 28.6902 43.3366 25.9841C46.7127 22.7249 47.3562 18.0701 44.7734 15.5767C42.1818 13.0833 37.3513 13.7046 33.984 16.9638C31.1808 19.6699 30.2993 23.3376 31.5511 25.9331C27.6284 29.7114 14.3355 42.5441 14.3355 42.5441L16.8301 44.9524L28.9595 33.2429L41.0888 44.9524L43.5834 42.5441L31.4541 30.8347L34.0457 28.3328V28.3328Z" fill="white"/>
</svg>
