<svg width="111" height="28" viewBox="0 0 111 28" fill="none" xmlns="http://www.w3.org/2000/svg">
<rect width="28" height="28" rx="10" fill="#EB5757"/>
<path d="M10.4804 14.912L12.8481 12.6262L6.9789 6.96018C5.6737 8.2202 5.6737 10.2677 6.9789 11.5277L10.4804 14.912V14.912ZM16.1572 13.446C17.4331 14.0236 19.2361 13.6157 20.5664 12.3314C22.1686 10.7847 22.474 8.57559 21.2483 7.3923C20.0184 6.20901 17.7259 6.50382 16.1279 8.05058C14.7976 9.33483 14.3792 11.0754 14.9733 12.3072C13.1117 14.1003 6.8032 20.1904 6.8032 20.1904L7.98709 21.3333L13.7434 15.7763L19.4997 21.3333L20.6836 20.1904L14.9273 14.6334L16.1572 13.446V13.446Z" fill="white"/>
<path d="M42.0039 15.4258H38.6992V22H35.7344V4.9375H41.7344C43.7031 4.9375 45.2227 5.37891 46.293 6.26172C47.3633 7.14453 47.8984 8.42188 47.8984 10.0938C47.8984 11.2344 47.6211 12.1914 47.0664 12.9648C46.5195 13.7305 45.7539 14.3203 44.7695 14.7344L48.6016 21.8477V22H45.4258L42.0039 15.4258ZM38.6992 13.0469H41.7461C42.7461 13.0469 43.5273 12.7969 44.0898 12.2969C44.6523 11.7891 44.9336 11.0977 44.9336 10.2227C44.9336 9.30859 44.6719 8.60156 44.1484 8.10156C43.6328 7.60156 42.8594 7.34375 41.8281 7.32812H38.6992V13.0469ZM56.0195 22.2344C54.2148 22.2344 52.75 21.668 51.625 20.5352C50.5078 19.3945 49.9492 17.8789 49.9492 15.9883V15.6367C49.9492 14.3711 50.1914 13.2422 50.6758 12.25C51.168 11.25 51.8555 10.4727 52.7383 9.91797C53.6211 9.36328 54.6055 9.08594 55.6914 9.08594C57.418 9.08594 58.75 9.63672 59.6875 10.7383C60.6328 11.8398 61.1055 13.3984 61.1055 15.4141V16.5625H52.8203C52.9062 17.6094 53.2539 18.4375 53.8633 19.0469C54.4805 19.6562 55.2539 19.9609 56.1836 19.9609C57.4883 19.9609 58.5508 19.4336 59.3711 18.3789L60.9062 19.8438C60.3984 20.6016 59.7188 21.1914 58.8672 21.6133C58.0234 22.0273 57.0742 22.2344 56.0195 22.2344ZM55.6797 11.3711C54.8984 11.3711 54.2656 11.6445 53.7812 12.1914C53.3047 12.7383 53 13.5 52.8672 14.4766H58.293V14.2656C58.2305 13.3125 57.9766 12.5938 57.5312 12.1094C57.0859 11.6172 56.4688 11.3711 55.6797 11.3711ZM67.6328 18.3906L70.3164 9.32031H73.2578L68.8633 22H66.3906L61.9609 9.32031H64.9141L67.6328 18.3906ZM78.0742 22H75.2266V9.32031H78.0742V22ZM75.0508 6.02734C75.0508 5.58984 75.1875 5.22656 75.4609 4.9375C75.7422 4.64844 76.1406 4.50391 76.6562 4.50391C77.1719 4.50391 77.5703 4.64844 77.8516 4.9375C78.1328 5.22656 78.2734 5.58984 78.2734 6.02734C78.2734 6.45703 78.1328 6.81641 77.8516 7.10547C77.5703 7.38672 77.1719 7.52734 76.6562 7.52734C76.1406 7.52734 75.7422 7.38672 75.4609 7.10547C75.1875 6.81641 75.0508 6.45703 75.0508 6.02734ZM86.7695 22.2344C84.9648 22.2344 83.5 21.668 82.375 20.5352C81.2578 19.3945 80.6992 17.8789 80.6992 15.9883V15.6367C80.6992 14.3711 80.9414 13.2422 81.4258 12.25C81.918 11.25 82.6055 10.4727 83.4883 9.91797C84.3711 9.36328 85.3555 9.08594 86.4414 9.08594C88.168 9.08594 89.5 9.63672 90.4375 10.7383C91.3828 11.8398 91.8555 13.3984 91.8555 15.4141V16.5625H83.5703C83.6562 17.6094 84.0039 18.4375 84.6133 19.0469C85.2305 19.6562 86.0039 19.9609 86.9336 19.9609C88.2383 19.9609 89.3008 19.4336 90.1211 18.3789L91.6562 19.8438C91.1484 20.6016 90.4688 21.1914 89.6172 21.6133C88.7734 22.0273 87.8242 22.2344 86.7695 22.2344ZM86.4297 11.3711C85.6484 11.3711 85.0156 11.6445 84.5312 12.1914C84.0547 12.7383 83.75 13.5 83.6172 14.4766H89.043V14.2656C88.9805 13.3125 88.7266 12.5938 88.2812 12.1094C87.8359 11.6172 87.2188 11.3711 86.4297 11.3711ZM105.215 18.0742L107.23 9.32031H110.008L106.551 22H104.207L101.488 13.293L98.8164 22H96.4727L93.0039 9.32031H95.7812L97.832 17.9805L100.434 9.32031H102.578L105.215 18.0742Z" fill="black"/>
</svg>
