<svg xmlns="http://www.w3.org/2000/svg" viewBox="0 0 10 10" width="10" height="10"><title>thumbs up</title><g class="nc-icon-wrapper" fill="#f2994a"><path d="M2.08 4.48h-1.6c-0.27 0-0.48 0.21-0.48 0.48v4.8c0 0.27 0.21 0.48 0.48 0.48h1.6c0.27 0 0.48-0.21 0.48-0.48v-4.8c0-0.27-0.21-0.48-0.48-0.48z m-0.8 4.96c-0.27 0-0.48-0.21-0.48-0.48s0.21-0.48 0.48-0.48 0.48 0.21 0.48 0.48-0.21 0.48-0.48 0.48z m6.4-7.81c0 0.85-0.52 1.32-0.67 1.89h2.04c0.67 0 1.19 0.55 1.19 1.16 0 0.36-0.15 0.74-0.39 0.99l0 0c0.2 0.47 0.16 1.12-0.19 1.59 0.17 0.52 0 1.15-0.32 1.49 0.09 0.35 0.04 0.65-0.13 0.9-0.41 0.59-1.42 0.59-2.27 0.59l-0.06 0c-0.97 0-1.76-0.35-2.39-0.63-0.32-0.14-0.74-0.32-1.05-0.33-0.13 0-0.24-0.11-0.24-0.24v-4.27c0-0.06 0.03-0.13 0.07-0.17 0.79-0.78 1.13-1.61 1.78-2.27 0.3-0.3 0.4-0.74 0.51-1.17 0.09-0.37 0.27-1.16 0.68-1.16 0.48 0 1.44 0.16 1.44 1.63z"/></g></svg>